<?xml version="1.0" standalone="no"?><!DOCTYPE svg PUBLIC "-//W3C//DTD SVG 1.1//EN" "http://www.w3.org/Graphics/SVG/1.1/DTD/svg11.dtd"><svg t="1640930332912" class="icon" viewBox="0 0 1024 1024" version="1.1" xmlns="http://www.w3.org/2000/svg" p-id="1227" data-darkreader-inline-fill="" xmlns:xlink="http://www.w3.org/1999/xlink" width="200" height="200"><defs><style type="text/css"></style></defs><path d="M938.666667 1024 85.333333 1024c-46.933333 0-85.333333-38.4-85.333333-85.333333L0 597.333333c0-23.466667 19.2-42.666667 42.666667-42.666667s42.666667 19.2 42.666667 42.666667l0 320c0 12.8 8.533333 21.333333 21.333333 21.333333l810.666667 0c12.8 0 21.333333-8.533333 21.333333-21.333333L938.666667 597.333333l0 0c0-23.466667 19.2-42.666667 42.666667-42.666667s42.666667 19.2 42.666667 42.666667l0 341.333333C1024 985.6 985.6 1024 938.666667 1024zM226.133333 268.8l256-256 0 0C488.533333 4.266667 499.2 0 512 0s23.466667 4.266667 29.866667 12.8l0 0 256 256 0 0c8.533333 8.533333 12.8 19.2 12.8 29.866667 0 23.466667-19.2 42.666667-42.666667 42.666667-12.8 0-23.466667-4.266667-29.866667-12.8l0 0L554.666667 145.066667 554.666667 725.333333c0 23.466667-19.2 42.666667-42.666667 42.666667s-42.666667-19.2-42.666667-42.666667L469.333333 145.066667l-183.466667 183.466667 0 0C279.466667 337.066667 268.8 341.333333 256 341.333333c-23.466667 0-42.666667-19.2-42.666667-42.666667C213.333333 285.866667 217.6 275.2 226.133333 268.8L226.133333 268.8z" p-id="1228"></path></svg>